<?xml version="1.0" standalone="no"?>
<!DOCTYPE svg PUBLIC "-//W3C//DTD SVG 20010904//EN"
 "http://www.w3.org/TR/2001/REC-SVG-20010904/DTD/svg10.dtd">
<svg version="1.0" xmlns="http://www.w3.org/2000/svg"
 width="268.000000pt" height="268.000000pt" viewBox="0 0 268.000000 268.000000"
 preserveAspectRatio="xMidYMid meet">
<metadata>
Created by potrace 1.11, written by Peter Selinger 2001-2013
</metadata>
<g transform="translate(0.000000,268.000000) scale(0.100000,-0.100000)"
fill="#000000" stroke="none">
<path d="M0 2220 c1 -353 4 -460 13 -460 8 0 8 -3 2 -8 -12 -8 -14 -61 -3 -77
4 -6 8 -38 10 -72 2 -48 6 -59 15 -51 9 7 13 7 13 -2 0 -6 6 -10 12 -7 7 2 12
10 10 16 -3 16 20 38 36 35 7 -1 8 0 2 3 -5 2 -10 12 -10 20 0 12 3 13 13 5 7
-6 24 -8 36 -5 23 6 23 7 6 20 -11 7 -14 13 -9 13 12 0 52 -29 41 -30 -4 0 -2
-6 5 -14 7 -8 17 -11 22 -8 5 3 7 -7 4 -22 -4 -22 -3 -24 9 -15 11 9 17 9 26
-1 10 -10 9 -11 -2 -5 -9 5 -12 4 -7 -3 4 -6 13 -9 20 -6 8 3 17 1 21 -5 3 -6
-2 -11 -12 -12 -14 0 -12 -3 7 -11 22 -10 23 -12 6 -15 -10 -3 -23 0 -29 6
-15 15 -24 14 -24 -3 0 -8 6 -12 14 -9 7 3 13 0 13 -6 0 -6 -9 -11 -19 -11
-11 0 -23 -5 -26 -10 -8 -14 14 -42 27 -34 5 3 17 0 26 -8 15 -12 16 -11 3 5
-8 10 -9 17 -3 17 6 0 14 -5 17 -10 4 -6 11 -8 16 -5 5 4 9 2 9 -4 0 -5 -6
-12 -13 -14 -7 -4 -8 -6 -1 -6 6 -1 17 6 24 14 9 10 9 15 1 15 -21 0 -11 16
21 32 50 25 68 29 68 15 0 -9 3 -9 9 1 4 7 12 12 17 10 5 -2 11 2 13 7 2 6 15
16 30 22 l26 13 -25 -6 c-23 -4 -23 -4 -6 7 16 10 22 8 37 -10 10 -12 20 -17
23 -12 4 5 1 11 -5 13 -6 2 5 9 25 15 29 9 36 9 36 -3 0 -20 64 -4 83 20 6 7
7 4 3 -6 -3 -10 -2 -20 3 -22 4 -3 8 0 9 7 7 44 6 73 -2 79 -6 4 -7 10 -3 15
5 4 12 1 16 -6 7 -10 13 -11 30 -2 16 9 21 9 21 -1 0 -9 3 -9 12 0 14 14 38
16 38 2 0 -5 -6 -7 -13 -4 -8 3 -20 -2 -27 -11 -12 -14 -10 -15 13 -11 15 2
32 8 39 12 7 4 4 -2 -6 -14 -11 -12 -15 -22 -9 -22 5 0 18 9 28 20 23 26 39
26 32 0 -3 -10 1 -24 9 -31 11 -9 14 -8 14 1 0 8 3 10 6 7 4 -4 1 -14 -6 -22
-11 -13 -11 -18 0 -28 10 -10 12 -9 7 6 -4 11 -1 17 8 17 8 0 15 -4 15 -10 0
-14 16 -12 32 4 10 10 19 11 32 4 28 -16 32 0 8 32 -26 35 -30 51 -4 20 l18
-22 14 26 c7 14 17 26 22 26 5 0 6 5 3 10 -4 6 0 22 9 35 9 14 15 27 14 29 -5
8 45 56 59 56 11 0 11 4 1 20 -11 18 -14 18 -30 3 -10 -9 -18 -11 -18 -5 0 6
6 12 13 15 9 3 9 7 1 18 -7 8 -13 22 -15 33 -3 12 -14 20 -34 22 -63 8 -70 12
-82 42 -12 28 -11 33 8 51 19 17 25 18 48 8 28 -14 47 -14 74 -2 9 4 24 4 33
1 24 -9 35 3 24 25 -7 12 -21 19 -40 19 -17 0 -30 5 -30 11 0 6 -9 24 -20 39
-18 25 -19 30 -5 44 8 8 24 18 35 21 11 4 18 10 15 15 -3 4 -20 3 -39 -2 -47
-15 -94 4 -90 35 1 12 3 25 3 30 1 4 8 7 16 7 10 0 15 10 15 29 0 17 5 33 10
36 6 4 8 11 4 16 -3 5 -9 7 -14 4 -7 -4 -20 16 -20 31 0 3 15 4 33 2 17 -2 31
-7 29 -11 -2 -5 14 -18 34 -29 21 -11 46 -31 56 -43 15 -19 25 -23 51 -19 26
4 38 -1 65 -25 52 -49 33 -91 -42 -91 -36 0 -48 5 -65 26 -11 14 -18 31 -15
38 4 10 -2 12 -23 8 -15 -3 -31 -9 -34 -14 -3 -4 -15 1 -28 13 -17 16 -28 19
-43 12 -20 -8 -20 -10 -3 -26 13 -14 20 -15 31 -6 11 9 17 9 28 0 8 -6 18 -11
22 -10 23 4 44 -2 41 -12 -3 -14 73 -55 120 -65 7 -1 13 4 13 12 0 9 5 12 12
8 6 -4 8 -3 5 3 -4 6 -1 13 6 16 9 3 18 -7 25 -26 12 -33 50 -67 49 -44 -1 32
4 47 16 47 17 0 47 36 39 46 -4 4 1 4 11 1 15 -6 16 -4 7 13 -12 23 -21 25
-40 8 -12 -11 -12 -10 -1 4 12 16 11 18 -20 13 l-34 -5 33 11 c24 7 38 7 47
-1 15 -12 25 6 25 45 0 28 34 55 61 48 10 -3 16 -9 13 -14 -3 -5 0 -9 6 -9 7
0 9 -7 6 -16 -3 -8 -2 -13 3 -10 5 3 14 0 20 -8 9 -11 8 -18 -4 -30 -18 -18
-29 -21 -20 -6 9 15 -2 12 -19 -5 -14 -14 -13 -18 5 -36 13 -13 19 -29 16 -40
-4 -16 -2 -19 16 -13 22 6 22 6 0 -11 -13 -9 -23 -21 -23 -28 0 -8 3 -8 12 1
7 7 14 12 18 12 8 0 6 -57 -3 -66 -9 -10 -9 -27 1 -21 4 3 7 -8 7 -24 0 -16
-3 -29 -7 -29 -5 0 -8 -5 -8 -10 0 -6 8 -5 20 2 11 7 15 15 9 19 -6 3 -4 11 5
19 13 10 17 9 22 -6 10 -34 22 -49 35 -46 7 2 19 -5 26 -14 18 -24 16 -39 -1
-21 -16 15 -70 11 -60 -4 3 -5 8 -7 12 -5 4 2 16 -2 27 -10 10 -8 13 -14 7
-14 -7 0 -12 -5 -12 -11 0 -5 5 -7 10 -4 5 3 10 2 10 -4 0 -5 -6 -12 -12 -14
-10 -4 -10 -8 1 -15 7 -5 11 -14 7 -20 -3 -6 -2 -13 4 -17 5 -3 10 -1 10 6 0
6 8 9 20 6 17 -4 18 -2 9 14 -7 14 -6 19 3 19 6 0 2 9 -10 20 -26 24 -28 32
-7 24 10 -4 15 0 15 11 0 13 6 16 23 11 12 -3 27 -6 33 -6 7 0 15 -10 19 -22
10 -31 12 -118 3 -118 -4 0 -5 -6 -3 -12 5 -16 16 -68 17 -85 2 -15 34 -27 48
-18 6 4 8 11 5 16 -9 14 25 23 38 10 9 -9 9 -14 -2 -20 -20 -13 9 -21 32 -9
13 7 17 5 18 -9 0 -11 3 -13 6 -5 2 6 13 12 23 12 10 0 20 -6 23 -12 3 -7 4
-3 4 9 -1 12 -5 19 -9 17 -4 -3 -8 2 -8 11 0 9 -5 13 -11 10 -6 -4 -5 2 2 14
16 24 60 26 51 1 -5 -12 -3 -13 10 -2 13 10 17 10 22 -4 4 -9 4 -19 1 -22 -3
-3 -5 0 -5 7 0 7 -6 11 -13 8 -6 -2 -21 0 -32 5 -14 7 -12 2 7 -16 23 -20 25
-26 13 -36 -10 -8 -11 -18 -5 -35 6 -16 5 -25 -3 -28 -7 -3 -2 -5 9 -4 15 1
25 11 33 33 13 35 29 45 60 37 23 -6 55 -49 46 -63 -3 -5 6 -12 20 -16 14 -3
25 -11 25 -17 0 -6 3 -8 6 -5 6 7 -18 49 -47 83 -9 11 -19 32 -22 46 -4 16
-23 37 -52 54 -25 16 -45 31 -45 34 0 15 -49 60 -81 75 -27 13 -43 31 -60 66
-16 34 -32 53 -51 59 -36 13 -63 45 -64 79 -2 48 -4 53 -14 47 -6 -4 -8 -12
-4 -18 3 -7 -1 -4 -9 6 -11 13 -16 15 -19 5 -4 -10 -8 -10 -19 -1 -8 6 -23 13
-34 15 -26 4 -45 41 -43 86 1 20 3 31 6 24 2 -6 8 -12 14 -12 6 0 8 7 4 15 -4
12 1 15 24 13 17 -1 30 -6 30 -10 0 -12 38 -10 45 2 3 6 18 10 33 10 25 0 25
0 6 -16 -10 -8 -13 -13 -6 -9 6 3 12 2 12 -4 0 -5 -5 -11 -11 -13 -7 -2 -7
-18 1 -51 7 -26 16 -45 20 -42 10 6 82 -70 74 -78 -4 -4 0 -7 9 -7 9 0 17 5
17 11 0 5 5 7 11 3 6 -3 7 -9 3 -13 -17 -12 -14 -30 3 -24 11 4 25 -5 44 -28
28 -34 28 -34 29 -9 0 15 5 31 12 38 34 34 108 -12 99 -62 -1 -4 6 -14 16 -21
15 -11 22 -11 39 0 25 16 34 11 34 -19 0 -15 -3 -17 -9 -8 -7 11 -9 10 -14 -3
-4 -9 -3 -14 1 -11 4 2 14 1 22 -5 10 -6 11 -9 3 -9 -7 0 -13 -8 -14 -17 0
-10 -3 -13 -5 -6 -3 7 -11 10 -18 7 -8 -3 -31 12 -51 33 -34 34 -36 35 -20 9
25 -41 63 -78 74 -72 8 6 20 -21 25 -56 2 -10 5 -19 7 -21 2 -1 14 -11 27 -22
22 -18 23 -18 16 0 -5 13 -4 16 4 11 8 -5 12 0 12 12 0 20 -29 52 -47 52 -14
0 -23 34 -13 49 3 7 15 9 26 5 16 -5 16 -4 4 5 -8 6 -10 11 -4 11 6 0 17 -7
24 -15 7 -8 16 -12 22 -9 11 7 51 -43 55 -70 9 -63 10 -86 1 -86 -5 0 -7 -4
-3 -9 3 -6 -4 -19 -16 -30 -20 -18 -20 -21 -6 -27 10 -3 17 -14 17 -24 0 -11
5 -22 10 -25 6 -3 10 -15 10 -26 0 -16 5 -18 28 -13 15 4 29 7 32 6 22 0 29
-5 34 -27 4 -14 12 -24 19 -22 6 1 11 -4 9 -11 -1 -8 2 -11 8 -7 6 4 16 2 23
-3 7 -6 24 -10 39 -9 20 2 24 5 16 15 -6 6 -6 12 -1 12 12 0 14 38 2 45 -5 4
-9 11 -9 16 0 6 5 7 10 4 6 -3 10 -2 10 3 0 14 32 25 39 14 14 -22 50 -23 70
-3 21 21 21 29 21 611 l0 590 -1340 0 -1340 0 0 -460z m520 359 c43 -11 53
-59 18 -83 -33 -23 -54 -20 -88 14 -17 17 -26 30 -20 30 5 0 10 7 10 15 0 8 7
15 15 15 8 0 15 5 15 11 0 6 8 9 18 6 9 -2 24 -6 32 -8z m545 -120 c4 -6 13
-8 21 -5 8 3 14 1 14 -4 0 -6 1 -13 3 -16 1 -4 -9 -11 -22 -15 -18 -7 -22 -6
-18 5 4 11 1 13 -11 9 -14 -6 -15 -4 -4 9 10 13 10 17 0 21 -9 4 -9 6 -1 6 6
1 15 -4 18 -10z m-315 -12 c-3 -3 3 -12 14 -20 29 -21 16 -51 -26 -61 -41 -10
-71 4 -61 30 3 8 -1 14 -11 14 -20 0 -20 9 0 31 10 11 28 17 52 15 20 -1 35
-5 32 -9z m594 -48 c-3 -5 0 -9 6 -9 7 0 9 -7 6 -16 -3 -8 -2 -12 4 -9 14 9
12 -9 -2 -23 -24 -24 -108 -8 -108 21 0 7 6 22 14 33 11 16 23 19 50 16 20 -2
33 -8 30 -13z m-134 -56 c0 -7 7 -13 16 -13 8 0 13 -4 10 -9 -4 -5 0 -11 6
-14 10 -3 10 -7 -1 -20 -14 -18 -61 -23 -61 -7 0 5 -6 8 -12 6 -7 -1 -10 -1
-5 1 4 3 7 9 7 14 0 5 -3 8 -7 8 -22 -4 -25 3 -7 16 11 8 14 15 7 15 -28 0
-11 16 17 16 18 0 30 -5 30 -13z m694 -137 c-3 -9 1 -13 12 -13 9 1 19 -5 21
-13 4 -13 3 -13 -6 0 -18 26 -24 2 -7 -31 22 -44 20 -47 -12 -16 -17 17 -32
23 -38 18 -5 -6 -14 -4 -21 4 -10 10 -9 14 3 19 8 3 13 2 10 -3 -3 -5 5 -8 18
-7 21 1 23 3 12 16 -11 13 -12 23 -7 46 0 3 5 3 11 -1 5 -3 7 -12 4 -19z
m-134 -12 c0 -21 -3 -24 -13 -15 -8 6 -17 8 -20 5 -3 -3 -11 -2 -18 2 -9 5 -5
12 16 20 17 7 31 13 33 14 1 0 2 -12 2 -26z m-1146 -16 c-3 -5 5 -18 18 -30
l23 -21 -38 6 c-46 7 -72 26 -58 40 7 7 16 6 28 -3 15 -12 16 -12 6 0 -19 20
-16 29 7 23 11 -3 17 -10 14 -15z m-89 2 c-3 -5 -1 -10 6 -10 7 0 10 -3 6 -6
-9 -9 -28 6 -22 17 4 5 8 9 11 9 3 0 2 -4 -1 -10z m30 -40 c3 -5 1 -10 -4 -10
-6 0 -11 5 -11 10 0 6 2 10 4 10 3 0 8 -4 11 -10z m1360 -37 c9 -13 14 -32 11
-40 -4 -9 -1 -22 5 -29 9 -11 9 -14 0 -14 -6 0 -14 7 -17 15 -4 8 -13 15 -21
15 -8 0 -11 -5 -7 -12 5 -10 3 -10 -7 0 -12 11 -12 14 1 22 11 7 11 10 2 10
-7 0 -10 5 -7 10 3 6 1 10 -6 10 -8 0 -7 5 2 17 10 11 10 14 2 9 -13 -7 -18 6
-7 17 10 10 32 -3 49 -30z m209 -245 c-5 -8 -1 -9 12 -4 14 5 16 4 7 -5 -13
-13 -37 -3 -28 12 4 5 8 9 11 9 3 0 2 -5 -2 -12z m-270 -91 c9 9 36 -30 31
-44 -2 -7 0 -13 5 -13 6 0 10 -4 10 -10 0 -5 -8 -7 -17 -3 -14 5 -15 3 -6 -7
14 -15 36 -3 29 16 -3 8 -2 14 2 14 11 0 32 -22 32 -34 0 -5 -3 -6 -7 -3 -10
11 -32 -13 -26 -29 7 -19 -7 -18 -22 2 -11 15 -14 15 -37 0 -25 -16 -27 -16
-48 6 -16 17 -20 31 -16 55 6 42 26 64 47 52 9 -4 19 -5 23 -2z m-1737 -139
c-3 -7 -5 -2 -5 12 0 14 2 19 5 13 2 -7 2 -19 0 -25z m460 -21 c0 -7 -6 -18
-14 -25 -17 -17 -19 8 -1 26 15 15 15 15 15 -1z m326 0 c3 -8 -3 -14 -15 -14
-16 -2 -17 1 -8 13 15 17 17 17 23 1z m-376 -22 c-9 -19 -13 -21 -15 -9 -3 13
12 33 25 34 0 0 -4 -11 -10 -25z m411 0 c-3 -3 -9 2 -12 12 -6 14 -5 15 5 6 7
-7 10 -15 7 -18z m-309 -7 c-14 -25 -26 -30 -33 -12 -8 21 0 33 23 31 15 -1
17 -5 10 -19z m41 12 c0 -5 -2 -10 -4 -10 -3 0 -8 5 -11 10 -3 6 -1 10 4 10 6
0 11 -4 11 -10z m1810 -66 c13 -34 13 -39 -5 -24 -11 9 -15 9 -15 1 0 -7 -5
-9 -12 -5 -7 4 -8 3 -4 -4 5 -8 2 -10 -8 -6 -18 7 -19 13 -7 33 5 7 14 11 20
7 7 -5 9 -1 5 8 -3 9 -1 16 5 16 6 0 16 -12 21 -26z m-2044 -3 c0 -11 -5 -17
-13 -14 -14 6 -17 16 -6 26 11 12 19 7 19 -12z m2040 -59 c-13 -14 -18 -14
-28 -3 -10 11 -10 12 0 7 7 -4 12 -1 12 8 0 10 6 13 16 9 14 -5 14 -7 0 -21z
m-2236 -8 c0 -2 -7 -4 -15 -4 -8 0 -15 4 -15 10 0 5 7 7 15 4 8 -4 15 -8 15
-10z"/>
<path d="M732 2424 c10 -10 20 -16 22 -13 3 3 -5 11 -17 18 -21 13 -21 12 -5
-5z"/>
<path d="M1188 2328 c10 -13 10 -17 0 -21 -9 -4 -9 -6 -1 -6 20 -2 24 16 5 30
-15 13 -16 12 -4 -3z"/>
<path d="M1900 2101 c0 -5 5 -13 10 -16 6 -3 10 -2 10 4 0 5 -4 13 -10 16 -5
3 -10 2 -10 -4z"/>
<path d="M1426 2175 c-5 -13 -2 -14 17 -4 18 9 20 9 10 -2 -21 -21 -15 -30 7
-12 14 13 16 19 7 25 -19 12 -34 9 -41 -7z"/>
<path d="M1715 2121 c3 -6 14 -9 25 -8 24 2 15 17 -11 17 -11 0 -18 -4 -14 -9z"/>
<path d="M1520 2021 c0 -5 5 -13 10 -16 6 -3 10 -2 10 4 0 5 -4 13 -10 16 -5
3 -10 2 -10 -4z"/>
<path d="M1503 1965 c-10 -10 -9 -14 2 -19 17 -6 26 5 17 21 -5 8 -11 7 -19
-2z"/>
<path d="M1090 1952 c0 -5 7 -9 15 -9 8 0 12 4 9 9 -3 4 -9 8 -15 8 -5 0 -9
-4 -9 -8z"/>
<path d="M1056 1925 c-3 -8 -1 -15 4 -15 6 0 10 7 10 15 0 8 -2 15 -4 15 -2 0
-6 -7 -10 -15z"/>
<path d="M700 1606 c0 -9 30 -14 35 -6 4 6 -3 10 -14 10 -12 0 -21 -2 -21 -4z"/>
<path d="M828 1593 c-16 -20 -22 -67 -7 -58 5 4 9 14 9 23 1 15 2 15 15 -2 13
-17 15 -17 15 -4 0 9 -4 19 -10 23 -5 3 -7 12 -3 20 7 20 -1 19 -19 -2z"/>
<path d="M210 1525 c-7 -9 -11 -17 -9 -20 3 -2 10 5 17 15 14 24 10 26 -8 5z"/>
<path d="M646 1525 c-3 -8 -1 -15 4 -15 13 0 22 18 11 24 -5 3 -11 -1 -15 -9z"/>
<path d="M476 1504 c-18 -17 -20 -32 -7 -52 6 -10 10 -9 14 7 3 12 1 19 -4 15
-15 -9 -10 13 6 26 12 10 15 10 15 -3 0 -9 4 -18 9 -21 5 -4 7 3 4 14 -8 28
-19 33 -37 14z"/>
<path d="M160 1480 c0 -5 5 -10 11 -10 5 0 7 5 4 10 -3 6 -8 10 -11 10 -2 0
-4 -4 -4 -10z"/>
<path d="M1965 1470 c-3 -5 -1 -10 4 -10 6 0 11 5 11 10 0 6 -2 10 -4 10 -3 0
-8 -4 -11 -10z"/>
<path d="M35 1461 c-3 -5 -2 -12 3 -15 5 -3 9 1 9 9 0 17 -3 19 -12 6z"/>
<path d="M495 1450 c-3 -5 -1 -10 4 -10 6 0 11 5 11 10 0 6 -2 10 -4 10 -3 0
-8 -4 -11 -10z"/>
<path d="M2605 1431 c-4 -7 0 -8 11 -4 11 4 15 3 10 -5 -3 -6 -2 -13 3 -16 5
-4 8 2 7 11 -3 20 -21 28 -31 14z"/>
<path d="M2566 1422 c-2 -4 -1 -14 4 -22 7 -11 9 -9 7 8 -1 24 -3 26 -11 14z"/>
<path d="M2596 1394 c-3 -8 -1 -14 4 -14 15 0 12 -17 -7 -35 -14 -14 -14 -18
-2 -26 11 -7 11 -9 1 -9 -7 0 -10 -5 -7 -10 4 -7 13 -6 26 1 15 7 17 14 10 23
-7 9 -6 18 4 32 12 18 12 22 -5 37 -16 13 -19 13 -24 1z"/>
<path d="M2654 1396 c1 -8 5 -18 8 -22 4 -3 5 1 4 10 -1 8 -5 18 -8 22 -4 3
-5 -1 -4 -10z"/>
<path d="M2030 1222 c18 -14 25 -31 26 -56 1 -20 -3 -36 -7 -36 -5 0 -9 -4 -9
-10 0 -5 7 -7 15 -4 8 4 15 1 15 -5 0 -6 -6 -11 -12 -12 -7 -1 -2 -4 12 -8 19
-5 25 -14 25 -34 1 -16 -5 -33 -12 -39 -8 -6 -10 -20 -7 -34 4 -14 2 -24 -4
-24 -6 0 -8 -8 -6 -17 9 -37 -11 -48 -90 -48 -43 0 -76 -4 -77 -10 -1 -5 13
-9 30 -7 22 3 31 -1 31 -11 0 -20 -31 -31 -41 -15 -6 10 -12 8 -23 -7 -9 -11
-13 -26 -11 -33 3 -7 0 -10 -5 -7 -6 3 -10 1 -10 -4 0 -6 -14 -24 -31 -41 -30
-28 -31 -30 -10 -30 12 0 20 -4 17 -9 -3 -5 10 -12 29 -15 48 -9 44 -29 -10
-45 -24 -7 -47 -12 -50 -12 -3 1 -18 -5 -35 -14 -25 -13 -55 -22 -83 -24 -5
-1 -5 -5 -2 -11 3 -5 2 -10 -3 -10 -6 0 -14 -13 -20 -28 -12 -34 2 -46 66 -57
68 -11 56 -20 -31 -22 -135 -3 -167 -11 -179 -44 -6 -18 -17 -29 -29 -29 -10
0 -19 -4 -19 -10 0 -12 20 -13 39 -1 18 11 41 3 41 -14 0 -10 -18 -12 -69 -10
-57 2 -71 0 -77 -14 -4 -9 -6 -19 -6 -23 2 -10 -2 -10 -32 2 -15 5 -26 6 -26
0 0 -5 10 -10 21 -12 36 -5 42 -43 14 -76 -14 -16 -22 -32 -18 -36 14 -14 -12
-5 -29 11 -14 13 -18 13 -18 2 -1 -9 -4 -8 -11 4 -10 18 -12 18 -34 -3 -13
-12 -28 -19 -34 -16 -5 4 -13 1 -17 -5 -4 -7 -3 -10 2 -6 5 3 14 -6 21 -19 6
-14 7 -26 2 -30 -5 -3 -9 -19 -9 -36 0 -26 -2 -28 -15 -18 -8 6 -19 9 -24 6
-5 -4 -28 0 -50 8 -22 7 -38 10 -36 5 3 -4 -3 -12 -12 -18 -25 -13 -9 -25 16
-12 11 6 22 7 25 3 13 -22 -62 -37 -92 -18 -6 4 -16 4 -22 1 -5 -3 -10 -2 -10
4 0 14 22 26 42 23 9 -2 19 2 23 7 3 7 0 8 -10 5 -8 -4 -22 0 -31 7 -11 9 -18
9 -22 2 -4 -6 -34 -14 -67 -17 -33 -3 -70 -8 -82 -12 -12 -3 -52 1 -90 10 -37
8 -94 17 -125 20 -103 10 -218 50 -218 76 0 15 31 20 36 5 7 -16 54 -21 54 -5
0 5 7 6 17 3 11 -4 14 -3 9 5 -4 7 -15 12 -24 12 -15 1 -15 2 -2 10 14 8 72
17 122 19 9 1 20 10 23 21 3 11 13 20 21 20 10 0 13 6 10 18 -5 15 -1 17 37
13 l42 -5 -35 -7 c-22 -4 -4 -6 45 -4 44 2 82 3 84 4 2 1 -7 10 -20 21 l-24
19 33 1 c37 0 39 4 12 32 -11 12 -20 30 -20 39 0 25 -85 62 -123 53 -19 -4
-40 0 -63 12 -28 15 -41 16 -81 8 -26 -5 -61 -7 -78 -3 -30 6 -30 6 -5 12 14
3 61 8 106 10 91 4 111 11 93 33 -6 8 -20 14 -29 14 -10 0 -20 4 -22 10 -2 6
-32 7 -85 2 -45 -4 -90 -5 -100 -1 -10 3 17 9 62 13 117 10 121 12 87 41 -25
21 -33 23 -68 15 -57 -14 -96 -12 -92 3 3 6 15 13 29 15 13 1 35 5 48 8 l25 5
-25 13 c-13 7 -23 19 -23 28 1 13 -5 15 -31 11 -28 -5 -35 -1 -51 25 -10 17
-21 29 -25 27 -4 -3 -23 2 -43 10 -27 12 -36 21 -36 39 0 20 -6 25 -38 30 -28
4 -189 2 -285 -4 -4 0 -7 -191 -7 -425 l1 -425 1339 0 1340 0 0 531 0 532 -30
-6 c-26 -6 -30 -4 -30 17 0 12 -3 26 -7 30 -4 4 -8 15 -8 24 0 9 -15 24 -33
33 -44 23 -86 6 -77 -30 18 -73 18 -77 -10 -89 -14 -7 -35 -12 -46 -12 -10 0
-28 -5 -38 -12 -15 -9 -24 -7 -50 11 -30 22 -41 54 -21 66 14 9 0 37 -16 31
-8 -3 -14 -2 -14 3 0 4 -10 12 -22 18 l-23 10 23 7 c12 4 22 13 22 20 0 14
-127 42 -240 53 l-55 6 25 -21z m145 -198 c-7 -8 -21 -11 -31 -7 -16 6 -16 7
1 19 9 7 23 10 31 7 11 -4 11 -7 -1 -19z m274 -151 c-19 -58 -22 -64 -33 -60
-6 2 -12 22 -14 45 -3 40 -2 42 27 42 27 0 29 -2 20 -27z m-324 -34 c11 -16
-3 -56 -21 -63 -18 -7 -54 19 -54 38 0 6 7 22 16 34 12 18 19 20 34 12 10 -6
22 -15 25 -21z m315 -99 c0 -5 -9 -10 -20 -10 -11 0 -20 5 -20 10 0 6 9 10 20
10 11 0 20 -4 20 -10z m-324 -57 c-11 -11 -17 4 -9 23 7 18 8 18 11 1 2 -10 1
-21 -2 -24z m324 2 c0 -14 -6 -25 -13 -25 -20 0 -25 9 -20 31 8 28 33 24 33
-6z m15 -145 c3 -5 -3 -10 -14 -10 -12 0 -21 5 -21 10 0 6 6 10 14 10 8 0 18
-4 21 -10z m-655 -30 c0 -5 6 -7 14 -4 7 3 16 -2 20 -11 4 -11 2 -14 -7 -8 -6
4 -18 8 -26 10 -22 3 -38 23 -18 23 9 0 17 -4 17 -10z m127 -16 c-3 -3 -12 -4
-19 -1 -8 3 -5 6 6 6 11 1 17 -2 13 -5z m-288 -63 c9 -6 10 -10 2 -16 -16 -9
-44 2 -36 15 8 12 16 12 34 1z m149 -9 c3 -9 -2 -13 -14 -10 -9 1 -19 9 -22
16 -3 9 2 13 14 10 9 -1 19 -9 22 -16z m-1030 -20 c4 -13 -10 -15 -58 -6 -22
5 -28 9 -18 15 19 12 71 6 76 -9z m-175 -49 c-7 -2 -21 -2 -30 0 -10 3 -4 5
12 5 17 0 24 -2 18 -5z m152 -3 c3 -5 -3 -10 -14 -10 -12 0 -21 5 -21 10 0 6
6 10 14 10 8 0 18 -4 21 -10z m40 0 c3 -5 -1 -10 -10 -10 -9 0 -13 5 -10 10 3
6 8 10 10 10 2 0 7 -4 10 -10z m-264 -41 c8 -16 6 -19 -11 -19 -14 0 -19 4
-14 12 5 7 2 9 -9 5 -8 -3 -18 0 -21 8 -11 31 38 25 55 -6z m-451 -35 c0 -14
-3 -14 -15 -4 -8 7 -15 14 -15 16 0 2 7 4 15 4 8 0 15 -7 15 -16z m70 -65 c13
-9 13 -10 0 -6 -8 2 -23 -2 -32 -10 -16 -15 -38 -11 -38 7 0 8 20 16 45 19 6
0 17 -4 25 -10z m35 1 c3 -5 1 -10 -4 -10 -6 0 -11 5 -11 10 0 6 2 10 4 10 3
0 8 -4 11 -10z m1698 -25 c-3 -9 -8 -14 -10 -11 -3 3 -2 9 2 15 9 16 15 13 8
-4z m-503 -4 c0 -13 -29 -35 -37 -28 -7 8 15 37 28 37 5 0 9 -4 9 -9z"/>
<path d="M328 1163 c7 -3 16 -2 19 1 4 3 -2 6 -13 5 -11 0 -14 -3 -6 -6z"/>
<path d="M41 1073 c-1 -7 -10 -13 -21 -13 -20 0 -21 -5 -18 -87 l3 -88 110 0
c145 -1 160 3 159 42 -1 27 1 30 30 28 17 0 41 -6 53 -13 31 -17 34 -15 23 12
-5 13 -6 27 -3 30 4 3 -2 6 -13 6 -19 1 -19 1 0 15 16 12 17 17 6 30 -10 12
-35 15 -116 15 -65 0 -105 -4 -110 -11 -5 -8 -10 -6 -16 5 -5 10 -22 16 -43
16 -18 0 -36 6 -38 13 -4 10 -6 10 -6 0z m157 -45 c9 -9 12 -9 12 1 0 7 5 9
13 4 6 -4 20 -6 30 -5 9 2 17 -2 17 -8 0 -6 10 -11 23 -10 43 4 46 2 34 -25
-14 -30 -28 -32 -47 -5 -16 22 -39 27 -42 8 0 -7 -2 -17 -2 -23 -4 -28 -17
-34 -34 -17 -10 10 -28 25 -40 33 -15 11 -19 22 -15 37 6 24 32 29 51 10z"/>
<path d="M618 863 c12 -2 30 -2 40 0 9 3 -1 5 -23 4 -22 0 -30 -2 -17 -4z"/>
<path d="M1275 420 c-3 -5 -1 -11 5 -15 5 -3 10 -3 10 1 0 4 11 -5 25 -20 l25
-27 0 23 c0 17 -8 27 -30 35 -16 6 -32 7 -35 3z"/>
<path d="M886 253 c-31 -16 -32 -20 -8 -41 10 -10 12 -13 5 -8 -8 5 -13 4 -13
-3 0 -8 -22 -10 -67 -9 -40 2 -68 -1 -70 -8 -2 -6 11 -10 33 -9 20 1 50 -3 66
-9 23 -9 31 -8 38 4 7 10 10 11 10 3 0 -17 10 -16 35 3 17 13 18 16 5 24 -20
12 120 12 163 -1 34 -10 107 -1 107 12 0 5 -11 9 -24 9 -13 0 -26 5 -28 11 -2
7 -19 11 -38 11 -19 -1 -48 -1 -64 -1 -16 0 -43 6 -60 13 -38 17 -56 17 -90
-1z"/>
<path d="M607 189 c7 -7 15 -10 18 -7 3 3 -2 9 -12 12 -14 6 -15 5 -6 -5z"/>
<path d="M974 191 c-2 -3 8 -10 24 -16 29 -13 92 -9 92 5 0 8 -108 18 -116 11z"/>
</g>
</svg>
